<svg width="1121" height="750" viewBox="0 0 1121 750" fill="none" xmlns="http://www.w3.org/2000/svg">
<mask id="mask0_18_54" style="mask-type:alpha" maskUnits="userSpaceOnUse" x="0" y="0" width="1121" height="748">
<path d="M0.146973 15.268C0.146973 6.98378 6.8627 0.268066 15.147 0.268066H1121V747.597H15.147C6.86271 747.597 0.146973 740.882 0.146973 732.597V15.268Z" fill="#232626"/>
</mask>
<g mask="url(#mask0_18_54)">
<path d="M650.841 748.932C650.159 733.909 646.176 720.166 646.987 704.753C648.462 676.718 668.304 646.577 690.869 630.331C711.555 615.437 736.879 608.963 760.844 601.57C801.719 588.959 842.933 580.038 882.558 563.469C896.233 557.752 909.203 550.768 921.4 542.343C947.751 524.142 963.918 494.798 979.07 467.328C992.625 442.752 1002.9 417.247 1011.76 390.682C1022.18 359.423 1035.32 329.428 1049.42 299.656C1064.23 268.368 1079.89 235.111 1107.16 212.558C1118.28 203.364 1130.75 196.979 1143.18 189.876" stroke="#3A3611" stroke-width="2" stroke-linecap="round"/>
<path d="M769.815 -8.93066C784.349 15.141 800.326 39.0162 822.994 56.1733C831.275 62.4406 839.976 67.847 849.481 72.0643C860.596 76.9963 873.189 82.6887 885.643 81.9926C903.649 80.9862 922.421 68.982 938.117 61.3204C979.252 41.242 1017.03 14.6151 1058.97 -3.77883C1075.68 -11.1048 1092.95 -17.6233 1110.44 -22.8467C1117.78 -25.0397 1124.46 -26.4175 1132.09 -26.0444C1154.66 -24.9406 1176 -21.4531 1196.93 -12.6228C1223.25 -1.52133 1249.36 15.3729 1269.76 35.3857C1276.55 42.0524 1284.66 48.7428 1290.39 56.3214" stroke="#3A3611" stroke-width="2" stroke-linecap="round"/>
</g>
</svg>
