<svg width="1125" height="750" viewBox="0 0 1125 750" fill="none" xmlns="http://www.w3.org/2000/svg">
<mask id="mask0_23_51" style="mask-type:alpha" maskUnits="userSpaceOnUse" x="4" y="0" width="1121" height="748">
<path d="M1124.85 15C1124.85 6.71571 1118.14 0 1109.85 0H4V747.329H1109.85C1118.14 747.329 1124.85 740.614 1124.85 732.329V15Z" fill="#232626"/>
</mask>
<g mask="url(#mask0_23_51)">
<path d="M474.159 748.664C474.841 733.641 478.824 719.898 478.013 704.485C476.538 676.45 456.696 646.309 434.131 630.063C413.445 615.169 388.121 608.695 364.156 601.302C323.281 588.691 282.067 579.769 242.442 563.201C228.767 557.483 215.797 550.5 203.6 542.075C177.249 523.874 161.082 494.53 145.93 467.06C132.375 442.484 122.096 416.979 113.241 390.414C102.821 359.155 89.6809 329.16 75.5849 299.388C60.7709 268.1 45.1144 234.843 17.841 212.29C6.72197 203.096 -5.75291 196.711 -18.1841 189.608" stroke="#3A3611" stroke-width="2" stroke-linecap="round"/>
<path d="M355.185 -9.19873C340.651 14.873 324.674 38.7482 302.006 55.9053C293.725 62.1725 285.024 67.5789 275.519 71.7962C264.404 76.7283 251.811 82.4207 239.357 81.7245C221.351 80.7181 202.579 68.7139 186.883 61.0524C145.748 40.9739 107.971 14.347 66.0259 -4.0469C49.3199 -11.3729 32.0462 -17.8913 14.5612 -23.1148C7.2206 -25.3078 0.541091 -26.6855 -7.08736 -26.3125C-29.6606 -25.2087 -51.0015 -21.7212 -71.9335 -12.8909C-98.2493 -1.7894 -124.361 15.1048 -144.759 35.1176C-151.554 41.7843 -159.658 48.4747 -165.395 56.0533" stroke="#3A3611" stroke-width="2" stroke-linecap="round"/>
</g>
</svg>
