<svg width="86" height="159" viewBox="0 0 86 159" fill="none" xmlns="http://www.w3.org/2000/svg">
<path d="M6.7041 6.74317C8.33426 6.74317 9.65577 5.42166 9.65577 3.7915C9.65577 2.16135 8.33426 0.839844 6.7041 0.839844C5.07395 0.839844 3.75244 2.16135 3.75244 3.7915C3.75244 5.42166 5.07395 6.74317 6.7041 6.74317Z" fill="#F3C977"/>
<path d="M25.6074 6.74317C27.2376 6.74317 28.5591 5.42166 28.5591 3.7915C28.5591 2.16135 27.2376 0.839844 25.6074 0.839844C23.9773 0.839844 22.6558 2.16135 22.6558 3.7915C22.6558 5.42166 23.9773 6.74317 25.6074 6.74317Z" fill="#F3C977"/>
<path d="M44.5107 6.74317C46.1409 6.74317 47.4624 5.42166 47.4624 3.7915C47.4624 2.16135 46.1409 0.839844 44.5107 0.839844C42.8806 0.839844 41.5591 2.16135 41.5591 3.7915C41.5591 5.42166 42.8806 6.74317 44.5107 6.74317Z" fill="#F3C977"/>
<path d="M63.4141 0.839844C61.799 0.839844 60.4624 2.17645 60.4624 3.7915C60.4624 5.40656 61.799 6.74317 63.4141 6.74317C65.0291 6.74317 66.3657 5.40656 66.3657 3.7915C66.3657 2.17645 65.0848 0.839844 63.4141 0.839844Z" fill="#F3C977"/>
<path d="M82.3174 6.74317C83.9475 6.74317 85.269 5.42166 85.269 3.7915C85.269 2.16135 83.9475 0.839844 82.3174 0.839844C80.6872 0.839844 79.3657 2.16135 79.3657 3.7915C79.3657 5.42166 80.6872 6.74317 82.3174 6.74317Z" fill="#F3C977"/>
<path d="M6.7041 25.6465C8.33426 25.6465 9.65577 24.325 9.65577 22.6948C9.65577 21.0647 8.33426 19.7432 6.7041 19.7432C5.07395 19.7432 3.75244 21.0647 3.75244 22.6948C3.75244 24.325 5.07395 25.6465 6.7041 25.6465Z" fill="#F3C977"/>
<path d="M25.6074 25.6465C27.2376 25.6465 28.5591 24.325 28.5591 22.6948C28.5591 21.0647 27.2376 19.7432 25.6074 19.7432C23.9773 19.7432 22.6558 21.0647 22.6558 22.6948C22.6558 24.325 23.9773 25.6465 25.6074 25.6465Z" fill="#F3C977"/>
<path d="M44.5107 25.6465C46.1409 25.6465 47.4624 24.325 47.4624 22.6948C47.4624 21.0647 46.1409 19.7432 44.5107 19.7432C42.8806 19.7432 41.5591 21.0647 41.5591 22.6948C41.5591 24.325 42.8806 25.6465 44.5107 25.6465Z" fill="#F3C977"/>
<path d="M63.4141 19.7432C61.799 19.7432 60.4624 21.0798 60.4624 22.6948C60.4624 24.3099 61.799 25.6465 63.4141 25.6465C65.0291 25.6465 66.3657 24.3099 66.3657 22.6948C66.3657 21.0798 65.0848 19.7432 63.4141 19.7432Z" fill="#F3C977"/>
<path d="M82.3174 25.6465C83.9475 25.6465 85.269 24.325 85.269 22.6948C85.269 21.0647 83.9475 19.7432 82.3174 19.7432C80.6872 19.7432 79.3657 21.0647 79.3657 22.6948C79.3657 24.325 80.6872 25.6465 82.3174 25.6465Z" fill="#F3C977"/>
<path d="M6.7041 44.5498C8.33426 44.5498 9.65577 43.2283 9.65577 41.5981C9.65577 39.968 8.33426 38.6465 6.7041 38.6465C5.07395 38.6465 3.75244 39.968 3.75244 41.5981C3.75244 43.2283 5.07395 44.5498 6.7041 44.5498Z" fill="#F3C977"/>
<path d="M25.6074 44.5498C27.2376 44.5498 28.5591 43.2283 28.5591 41.5981C28.5591 39.968 27.2376 38.6465 25.6074 38.6465C23.9773 38.6465 22.6558 39.968 22.6558 41.5981C22.6558 43.2283 23.9773 44.5498 25.6074 44.5498Z" fill="#F3C977"/>
<path d="M44.5107 44.5498C46.1409 44.5498 47.4624 43.2283 47.4624 41.5981C47.4624 39.968 46.1409 38.6465 44.5107 38.6465C42.8806 38.6465 41.5591 39.968 41.5591 41.5981C41.5591 43.2283 42.8806 44.5498 44.5107 44.5498Z" fill="#F3C977"/>
<path d="M63.4141 38.6465C61.799 38.6465 60.4624 39.9831 60.4624 41.5981C60.4624 43.2132 61.799 44.5498 63.4141 44.5498C65.0291 44.5498 66.3657 43.2132 66.3657 41.5981C66.3657 39.9831 65.0848 38.6465 63.4141 38.6465Z" fill="#F3C977"/>
<path d="M82.3174 44.5498C83.9475 44.5498 85.269 43.2283 85.269 41.5981C85.269 39.968 83.9475 38.6465 82.3174 38.6465C80.6872 38.6465 79.3657 39.968 79.3657 41.5981C79.3657 43.2283 80.6872 44.5498 82.3174 44.5498Z" fill="#F3C977"/>
<path d="M6.7041 63.5088C8.33426 63.5088 9.65577 62.1873 9.65577 60.5571C9.65577 58.927 8.33426 57.6055 6.7041 57.6055C5.07395 57.6055 3.75244 58.927 3.75244 60.5571C3.75244 62.1873 5.07395 63.5088 6.7041 63.5088Z" fill="#F3C977"/>
<path d="M25.6074 63.5088C27.2376 63.5088 28.5591 62.1873 28.5591 60.5571C28.5591 58.927 27.2376 57.6055 25.6074 57.6055C23.9773 57.6055 22.6558 58.927 22.6558 60.5571C22.6558 62.1873 23.9773 63.5088 25.6074 63.5088Z" fill="#F3C977"/>
<path d="M44.5107 63.5088C46.1409 63.5088 47.4624 62.1873 47.4624 60.5571C47.4624 58.927 46.1409 57.6055 44.5107 57.6055C42.8806 57.6055 41.5591 58.927 41.5591 60.5571C41.5591 62.1873 42.8806 63.5088 44.5107 63.5088Z" fill="#F3C977"/>
<path d="M63.4141 57.5498C61.799 57.5498 60.4624 58.8864 60.4624 60.5015C60.4624 62.1165 61.799 63.4531 63.4141 63.4531C65.0291 63.4531 66.3657 62.1165 66.3657 60.5015C66.3657 58.8864 65.0848 57.5498 63.4141 57.5498Z" fill="#F3C977"/>
<path d="M82.3174 63.5088C83.9475 63.5088 85.269 62.1873 85.269 60.5571C85.269 58.927 83.9475 57.6055 82.3174 57.6055C80.6872 57.6055 79.3657 58.927 79.3657 60.5571C79.3657 62.1873 80.6872 63.5088 82.3174 63.5088Z" fill="#F3C977"/>
<path d="M6.7041 82.4121C8.33426 82.4121 9.65577 81.0906 9.65577 79.4604C9.65577 77.8303 8.33426 76.5088 6.7041 76.5088C5.07395 76.5088 3.75244 77.8303 3.75244 79.4604C3.75244 81.0906 5.07395 82.4121 6.7041 82.4121Z" fill="#F3C977"/>
<path d="M25.6074 82.4121C27.2376 82.4121 28.5591 81.0906 28.5591 79.4604C28.5591 77.8303 27.2376 76.5088 25.6074 76.5088C23.9773 76.5088 22.6558 77.8303 22.6558 79.4604C22.6558 81.0906 23.9773 82.4121 25.6074 82.4121Z" fill="#F3C977"/>
<path d="M44.5107 82.4121C46.1409 82.4121 47.4624 81.0906 47.4624 79.4604C47.4624 77.8303 46.1409 76.5088 44.5107 76.5088C42.8806 76.5088 41.5591 77.8303 41.5591 79.4604C41.5591 81.0906 42.8806 82.4121 44.5107 82.4121Z" fill="#F3C977"/>
<path d="M63.4141 76.5088C61.799 76.5088 60.4624 77.8454 60.4624 79.4604C60.4624 81.0755 61.799 82.4121 63.4141 82.4121C65.0291 82.4121 66.3657 81.0755 66.3657 79.4604C66.3657 77.7897 65.0848 76.5088 63.4141 76.5088Z" fill="#F3C977"/>
<path d="M82.3174 82.4121C83.9475 82.4121 85.269 81.0906 85.269 79.4604C85.269 77.8303 83.9475 76.5088 82.3174 76.5088C80.6872 76.5088 79.3657 77.8303 79.3657 79.4604C79.3657 81.0906 80.6872 82.4121 82.3174 82.4121Z" fill="#F3C977"/>
<path d="M6.7041 101.315C8.33426 101.315 9.65577 99.9939 9.65577 98.3638C9.65577 96.7336 8.33426 95.4121 6.7041 95.4121C5.07395 95.4121 3.75244 96.7336 3.75244 98.3638C3.75244 99.9939 5.07395 101.315 6.7041 101.315Z" fill="#F3C977"/>
<path d="M25.6074 101.315C27.2376 101.315 28.5591 99.9939 28.5591 98.3638C28.5591 96.7336 27.2376 95.4121 25.6074 95.4121C23.9773 95.4121 22.6558 96.7336 22.6558 98.3638C22.6558 99.9939 23.9773 101.315 25.6074 101.315Z" fill="#F3C977"/>
<path d="M44.5107 101.315C46.1409 101.315 47.4624 99.9939 47.4624 98.3638C47.4624 96.7336 46.1409 95.4121 44.5107 95.4121C42.8806 95.4121 41.5591 96.7336 41.5591 98.3638C41.5591 99.9939 42.8806 101.315 44.5107 101.315Z" fill="#F3C977"/>
<path d="M63.4141 95.4121C61.799 95.4121 60.4624 96.7487 60.4624 98.3638C60.4624 99.9788 61.799 101.315 63.4141 101.315C65.0291 101.315 66.3657 99.9788 66.3657 98.3638C66.3657 96.693 65.0848 95.4121 63.4141 95.4121Z" fill="#F3C977"/>
<path d="M82.3174 101.315C83.9475 101.315 85.269 99.9939 85.269 98.3638C85.269 96.7336 83.9475 95.4121 82.3174 95.4121C80.6872 95.4121 79.3657 96.7336 79.3657 98.3638C79.3657 99.9939 80.6872 101.315 82.3174 101.315Z" fill="#F3C977"/>
<path d="M6.7041 120.219C8.33426 120.219 9.65577 118.897 9.65577 117.267C9.65577 115.637 8.33426 114.315 6.7041 114.315C5.07395 114.315 3.75244 115.637 3.75244 117.267C3.75244 118.897 5.07395 120.219 6.7041 120.219Z" fill="#F3C977"/>
<path d="M25.6074 120.219C27.2376 120.219 28.5591 118.897 28.5591 117.267C28.5591 115.637 27.2376 114.315 25.6074 114.315C23.9773 114.315 22.6558 115.637 22.6558 117.267C22.6558 118.897 23.9773 120.219 25.6074 120.219Z" fill="#F3C977"/>
<path d="M44.5107 120.219C46.1409 120.219 47.4624 118.897 47.4624 117.267C47.4624 115.637 46.1409 114.315 44.5107 114.315C42.8806 114.315 41.5591 115.637 41.5591 117.267C41.5591 118.897 42.8806 120.219 44.5107 120.219Z" fill="#F3C977"/>
<path d="M63.4141 114.315C61.799 114.315 60.4624 115.652 60.4624 117.267C60.4624 118.882 61.799 120.219 63.4141 120.219C65.0291 120.219 66.3657 118.882 66.3657 117.267C66.3657 115.652 65.0848 114.315 63.4141 114.315Z" fill="#F3C977"/>
<path d="M82.3174 120.219C83.9475 120.219 85.269 118.897 85.269 117.267C85.269 115.637 83.9475 114.315 82.3174 114.315C80.6872 114.315 79.3657 115.637 79.3657 117.267C79.3657 118.897 80.6872 120.219 82.3174 120.219Z" fill="#F3C977"/>
<path d="M6.7041 139.122C8.33426 139.122 9.65577 137.801 9.65577 136.17C9.65577 134.54 8.33426 133.219 6.7041 133.219C5.07395 133.219 3.75244 134.54 3.75244 136.17C3.75244 137.801 5.07395 139.122 6.7041 139.122Z" fill="#F3C977"/>
<path d="M25.6074 139.122C27.2376 139.122 28.5591 137.801 28.5591 136.17C28.5591 134.54 27.2376 133.219 25.6074 133.219C23.9773 133.219 22.6558 134.54 22.6558 136.17C22.6558 137.801 23.9773 139.122 25.6074 139.122Z" fill="#F3C977"/>
<path d="M44.5107 139.122C46.1409 139.122 47.4624 137.801 47.4624 136.17C47.4624 134.54 46.1409 133.219 44.5107 133.219C42.8806 133.219 41.5591 134.54 41.5591 136.17C41.5591 137.801 42.8806 139.122 44.5107 139.122Z" fill="#F3C977"/>
<path d="M63.4141 133.219C61.799 133.219 60.4624 134.555 60.4624 136.17C60.4624 137.785 61.799 139.122 63.4141 139.122C65.0291 139.122 66.3657 137.785 66.3657 136.17C66.3657 134.555 65.0848 133.219 63.4141 133.219Z" fill="#F3C977"/>
<path d="M82.3174 139.122C83.9475 139.122 85.269 137.801 85.269 136.17C85.269 134.54 83.9475 133.219 82.3174 133.219C80.6872 133.219 79.3657 134.54 79.3657 136.17C79.3657 137.801 80.6872 139.122 82.3174 139.122Z" fill="#F3C977"/>
<path d="M6.7041 158.025C8.33426 158.025 9.65577 156.704 9.65577 155.074C9.65577 153.444 8.33426 152.122 6.7041 152.122C5.07395 152.122 3.75244 153.444 3.75244 155.074C3.75244 156.704 5.07395 158.025 6.7041 158.025Z" fill="#F3C977"/>
<path d="M25.6074 158.025C27.2376 158.025 28.5591 156.704 28.5591 155.074C28.5591 153.444 27.2376 152.122 25.6074 152.122C23.9773 152.122 22.6558 153.444 22.6558 155.074C22.6558 156.704 23.9773 158.025 25.6074 158.025Z" fill="#F3C977"/>
<path d="M44.5107 158.025C46.1409 158.025 47.4624 156.704 47.4624 155.074C47.4624 153.444 46.1409 152.122 44.5107 152.122C42.8806 152.122 41.5591 153.444 41.5591 155.074C41.5591 156.704 42.8806 158.025 44.5107 158.025Z" fill="#F3C977"/>
<path d="M63.4141 152.122C61.799 152.122 60.4624 153.459 60.4624 155.074C60.4624 156.689 61.799 158.025 63.4141 158.025C65.0291 158.025 66.3657 156.689 66.3657 155.074C66.3657 153.459 65.0848 152.122 63.4141 152.122Z" fill="#F3C977"/>
<path d="M82.3174 158.025C83.9475 158.025 85.269 156.704 85.269 155.074C85.269 153.444 83.9475 152.122 82.3174 152.122C80.6872 152.122 79.3657 153.444 79.3657 155.074C79.3657 156.704 80.6872 158.025 82.3174 158.025Z" fill="#F3C977"/>
</svg>
